<svg version="1.1" xmlns="http://www.w3.org/2000/svg" xmlns:xlink="http://www.w3.org/1999/xlink" x="0" y="0" width="160" height="24" viewBox="0, 0, 160, 24">
  <g id="Calque_1">
    <path d="M0,0 L160,0 L160,24 L0,24 L0,0 z" fill="#000000" display="none"/>
    <g>
      <path d="M15.978,2.33 L11.172,2.33 L10.199,3.045 C10.199,3.045 11.858,5.248 11.858,5.219 C11.858,5.19 13.203,3.932 13.203,3.932 L14.147,3.903 L15.291,5.248 L17.094,3.159 L15.978,2.33 z" fill="#09090B"/>
      <path d="M17.751,4.018 L16.178,5.877 L16.15,13.773 L17.608,12.943 L17.666,7.479 L19.125,5.534 L17.751,4.018 z" fill="#09090B"/>
      <path d="M11.057,5.877 L11,13.773 L9.541,12.943 C9.541,12.943 9.541,7.479 9.541,7.45 C9.541,7.422 8.025,5.677 8.025,5.648 C8.025,5.62 9.455,4.018 9.455,4.018 L11.057,5.877 z" fill="#09090B"/>
      <path d="M12.745,5.505 L13.489,6.22 L14.433,5.477 L13.689,4.647 L12.745,5.505 z" fill="#09090B"/>
      <path d="M13.174,6.878 L12.488,11.856 L13.46,13.057 L14.748,11.856 L14.118,6.707 L13.174,6.878 z" fill="#09090B"/>
      <path d="M18.867,10.197 L18.438,10.569 L18.753,11.312 L21.413,11.427 L21.728,10.855 C21.728,10.855 21.528,10.282 21.47,10.282 C21.413,10.282 18.867,10.197 18.867,10.197 z" fill="#09090B"/>
      <path d="M19.296,12.256 L19.353,15.975 C19.353,15.975 20.441,14.917 20.441,14.888 C20.441,14.86 20.412,12.256 20.412,12.256 L19.296,12.256 z" fill="#09090B"/>
      <path d="M18.438,13.629 L18.581,15.975 L17.094,14.116 L18.438,13.629 z" fill="#09090B"/>
      <path d="M16.264,14.717 L17.694,16.748 L9.57,16.719 L10.943,14.717 L16.264,14.717 z" fill="#09090B"/>
      <path d="M8.769,13.629 L10.199,14.259 C10.199,14.259 8.54,15.975 8.569,15.975 C8.597,15.975 8.769,13.629 8.769,13.629 z" fill="#09090B"/>
      <path d="M6.738,12.256 L7.796,12.256 L7.768,15.775 L6.738,14.717 L6.738,12.256 z" fill="#09090B"/>
      <path d="M8.254,10.197 L8.74,10.797 L8.368,11.427 L5.708,11.427 L5.422,10.855 L5.851,10.197 L8.254,10.197 z" fill="#09090B"/>
      <path d="M12.745,17.634 L12.745,18.435 L8.025,20.667 L8.025,21.439 C8.025,21.439 8.74,21.697 8.74,21.668 C8.74,21.639 13.718,19.58 13.689,19.551 C13.661,19.523 19.296,21.611 19.296,21.611 L19.296,20.781 L14.548,18.75 L14.576,17.749 L12.745,17.634 z" fill="#09090B"/>
    </g>
    <g>
      <path d="M103.394,7.663 Q105.264,7.663 106.76,8.433 Q108.256,9.203 109.103,10.644 Q109.95,12.085 109.95,14.021 Q109.95,15.957 109.103,17.398 Q108.256,18.839 106.76,19.609 Q105.264,20.379 103.394,20.379 Q101.524,20.379 100.028,19.609 Q98.532,18.839 97.685,17.398 Q96.838,15.957 96.838,14.021 Q96.838,12.085 97.685,10.644 Q98.532,9.203 100.028,8.433 Q101.524,7.663 103.394,7.663 z M103.394,11.887 Q102.712,11.887 102.25,12.426 Q101.788,12.965 101.788,14.021 Q101.788,15.077 102.239,15.616 Q102.69,16.155 103.394,16.155 Q104.076,16.155 104.538,15.616 Q105,15.077 105,14.021 Q105,12.965 104.538,12.426 Q104.076,11.887 103.394,11.887 z" fill="#09090B"/>
      <path d="M89.402,7.663 Q91.272,7.663 92.768,8.433 Q94.264,9.203 95.111,10.644 Q95.958,12.085 95.958,14.021 Q95.958,15.957 95.111,17.398 Q94.264,18.839 92.768,19.609 Q91.272,20.379 89.402,20.379 Q87.532,20.379 86.036,19.609 Q84.54,18.839 83.693,17.398 Q82.846,15.957 82.846,14.021 Q82.846,12.085 83.693,10.644 Q84.54,9.203 86.036,8.433 Q87.532,7.663 89.402,7.663 z M89.402,11.887 Q88.72,11.887 88.258,12.426 Q87.796,12.965 87.796,14.021 Q87.796,15.077 88.247,15.616 Q88.698,16.155 89.402,16.155 Q90.084,16.155 90.546,15.616 Q91.008,15.077 91.008,14.021 Q91.008,12.965 90.546,12.426 Q90.084,11.887 89.402,11.887 z" fill="#09090B"/>
      <path d="M58.684,7.553 Q60.502,7.553 61.663,8.462 Q62.824,9.371 62.95,10.955 L60.682,10.955 Q60.628,10.271 60.034,9.785 Q59.44,9.299 58.468,9.299 Q57.586,9.299 57.028,9.749 Q56.47,10.199 56.47,11.045 Q56.47,11.621 56.821,11.99 Q57.172,12.359 57.712,12.575 Q58.252,12.791 59.188,13.043 Q60.43,13.385 61.213,13.727 Q61.996,14.069 62.545,14.78 Q63.094,15.491 63.094,16.679 Q63.094,17.633 62.581,18.479 Q62.068,19.325 61.087,19.838 Q60.106,20.351 58.774,20.351 Q57.514,20.351 56.506,19.91 Q55.498,19.469 54.922,18.659 Q54.346,17.849 54.346,16.769 L56.542,16.769 Q56.614,17.579 57.181,18.101 Q57.748,18.623 58.774,18.623 Q59.836,18.623 60.43,18.11 Q61.024,17.597 61.024,16.787 Q61.024,16.157 60.655,15.761 Q60.286,15.365 59.737,15.149 Q59.188,14.933 58.216,14.681 Q56.992,14.357 56.227,14.024 Q55.462,13.691 54.922,12.989 Q54.382,12.287 54.382,11.117 Q54.382,10.037 54.922,9.227 Q55.462,8.417 56.434,7.985 Q57.406,7.553 58.684,7.553 z" fill="#09090B"/>
      <path d="M46.444,7.553 Q48.442,7.553 49.999,8.534 Q51.556,9.515 52.258,11.315 L49.792,11.315 Q49.306,10.379 48.442,9.902 Q47.578,9.425 46.444,9.425 Q45.202,9.425 44.23,9.983 Q43.258,10.541 42.709,11.567 Q42.16,12.593 42.16,13.943 Q42.16,15.293 42.709,16.328 Q43.258,17.363 44.23,17.921 Q45.202,18.479 46.444,18.479 Q48.118,18.479 49.162,17.543 Q50.206,16.607 50.44,15.005 L45.742,15.005 L45.742,13.367 L52.636,13.367 L52.636,14.969 Q52.438,16.427 51.601,17.651 Q50.764,18.875 49.423,19.604 Q48.082,20.333 46.444,20.333 Q44.68,20.333 43.222,19.514 Q41.764,18.695 40.909,17.237 Q40.054,15.779 40.054,13.943 Q40.054,12.107 40.909,10.649 Q41.764,9.191 43.231,8.372 Q44.698,7.553 46.444,7.553 z" fill="#09090B"/>
      <path d="M146.184,4.825 L146.184,7.817 L148.208,7.817 L148.208,11.887 L146.184,11.887 L146.184,15.231 Q146.184,15.671 146.393,15.869 Q146.602,16.067 147.086,16.067 L148.252,16.067 L148.252,20.225 L146.404,20.225 Q141.3,20.225 141.3,15.143 L141.3,11.887 L139.76,11.887 L139.76,7.817 L141.3,7.817 L141.3,4.825 L146.184,4.825 z" fill="#09090B"/>
      <path d="M138.33,7.817 L138.33,20.225 L133.446,20.225 L133.446,7.817 L138.33,7.817 z" fill="#09090B"/>
      <path d="M123.458,3.945 L123.458,12.459 L126.56,7.817 L132.236,7.817 L127.594,14.065 L132.346,20.225 L126.516,20.225 L123.458,15.275 L123.458,20.225 L118.574,20.225 L118.574,3.945 L123.458,3.945 z" fill="#09090B"/>
      <path d="M116.374,3.945 L116.374,20.225 L111.49,20.225 L111.49,3.945 L116.374,3.945 z" fill="#09090B"/>
      <path d="M82.186,4.649 L82.186,8.521 L78.05,8.521 L78.05,20.225 L73.166,20.225 L73.166,8.521 L69.074,8.521 L69.074,4.649 L82.186,4.649 z" fill="#09090B"/>
      <path d="M29.434,7.715 L33.142,18.119 L36.868,7.715 L39.028,7.715 L34.33,20.225 L31.954,20.225 L27.238,7.715 L29.434,7.715 z" fill="#09090B"/>
      <path d="M135.91,1.987 Q137.164,1.987 137.934,2.68 Q138.704,3.373 138.704,4.429 Q138.704,5.463 137.934,6.145 Q137.164,6.827 135.91,6.827 Q134.634,6.827 133.864,6.145 Q133.094,5.463 133.094,4.429 Q133.094,3.373 133.864,2.68 Q134.634,1.987 135.91,1.987 z" fill="#09090B"/>
    </g>
  </g>
</svg>